<svg xmlns="http://www.w3.org/2000/svg" xmlns:xlink="http://www.w3.org/1999/xlink" width="1920" height="1080" viewBox="0 0 1920 1080">
  <defs>
    <clipPath id="clip-Web_1920_1">
      <rect width="1920" height="1080"/>
    </clipPath>
  </defs>
  <g id="Web_1920_1" data-name="Web 1920 – 1" clip-path="url(#clip-Web_1920_1)">
    <rect width="1920" height="1080" fill="#292727"/>
    <g id="Group_24" data-name="Group 24">
      <rect id="Rectangle_30" data-name="Rectangle 30" width="655" height="578" transform="translate(1489.375 -335.536) rotate(45)" fill="#493dd1"/>
      <rect id="Rectangle_28" data-name="Rectangle 28" width="1020" height="343" transform="translate(806.249 -170.061) rotate(45)" fill="#30f073"/>
      <path id="Path_14" data-name="Path 14" d="M0,0H828V28H0Z" transform="translate(959.637 -51.662) rotate(45)" fill="#fff"/>
      <rect id="Rectangle_32" data-name="Rectangle 32" width="1078" height="28" transform="translate(524.86 29.561) rotate(45)" fill="#fff"/>
      <rect id="Rectangle_31" data-name="Rectangle 31" width="696" height="412" transform="translate(485.097 1011.454) rotate(-45)" fill="#cd342e"/>
      <rect id="Rectangle_29" data-name="Rectangle 29" width="600" height="600" transform="translate(552.277 93.967) rotate(45)"/>
      <rect id="Rectangle_27" data-name="Rectangle 27" width="89" height="1004" transform="translate(707.793 -187.197) rotate(45)" fill="#cd342e"/>
      <rect id="Rectangle_26" data-name="Rectangle 26" width="97" height="981" transform="translate(770.726 1158.11) rotate(135)" fill="#cd342e"/>
      <rect id="Rectangle_24" data-name="Rectangle 24" width="402" height="708" transform="translate(216.272 -267.028) rotate(45)"/>
      <rect id="Rectangle_25" data-name="Rectangle 25" width="1094" height="403" transform="translate(0.604 517.64) rotate(45)"/>
      <rect id="Rectangle_22" data-name="Rectangle 22" width="462" height="1673" transform="translate(2063.4 282.409) rotate(45)"/>
      <g id="Group_21" data-name="Group 21" transform="translate(-603.112 2099.99) rotate(-45)">
        <path id="Icon_material-computer" data-name="Icon material-computer" d="M78.877,61.214a7.877,7.877,0,0,0,7.848-7.888l.039-39.439A7.911,7.911,0,0,0,78.877,6h-63.1a7.911,7.911,0,0,0-7.888,7.888V53.326a7.911,7.911,0,0,0,7.888,7.888H0V69.1H94.653V61.214Zm-63.1-47.326h63.1V53.326h-63.1Z" transform="translate(2021 428.258)" fill="#cd342e"/>
        <g id="Icon_feather-monitor" data-name="Icon feather-monitor" transform="translate(2140.367 430.315)">
          <path id="Path_9" data-name="Path 9" d="M10.888,4.5h63.1a7.888,7.888,0,0,1,7.888,7.888V51.826a7.888,7.888,0,0,1-7.888,7.888h-63.1A7.888,7.888,0,0,1,3,51.826V12.388A7.888,7.888,0,0,1,10.888,4.5Z" transform="translate(-3 -4.5)" fill="none" stroke="#cd342e" stroke-linecap="round" stroke-linejoin="round" stroke-width="3"/>
          <path id="Path_10" data-name="Path 10" d="M12,31.5H43.551" transform="translate(11.663 39.49)" fill="none" stroke="#cd342e" stroke-linecap="round" stroke-linejoin="round" stroke-width="3"/>
          <path id="Path_11" data-name="Path 11" d="M18,25.5V41.275" transform="translate(21.439 29.714)" fill="none" stroke="#cd342e" stroke-linecap="round" stroke-linejoin="round" stroke-width="3"/>
        </g>
        <path id="Icon_awesome-headset" data-name="Icon awesome-headset" d="M28.593,30.976a4.766,4.766,0,0,0-4.766-4.766H21.445a9.53,9.53,0,0,0-9.531,9.531V42.89a9.53,9.53,0,0,0,9.531,9.531h2.383a4.766,4.766,0,0,0,4.766-4.765ZM54.8,52.421a9.53,9.53,0,0,0,9.531-9.531V35.741A9.53,9.53,0,0,0,54.8,26.21H52.421a4.766,4.766,0,0,0-4.765,4.766V47.655a4.766,4.766,0,0,0,4.765,4.765ZM38.124,0C16.855,0,.682,17.7,0,38.124v2.383A2.382,2.382,0,0,0,2.383,42.89H4.766a2.382,2.382,0,0,0,2.383-2.383V38.124a30.976,30.976,0,0,1,61.952,0h-.018c.012.362.018,24.679.018,24.679a6.3,6.3,0,0,1-6.3,6.3H47.655a7.148,7.148,0,0,0-7.148-7.148H35.741a7.148,7.148,0,0,0,0,14.3H62.8A13.445,13.445,0,0,0,76.248,62.8V38.124C75.566,17.7,59.393,0,38.124,0Z" transform="translate(2244.486 429)" fill="#cd342e"/>
        <g id="Icon_ionic-logo-game-controller-b" data-name="Icon ionic-logo-game-controller-b" transform="translate(2344.397 439.517)">
          <path id="Path_12" data-name="Path 12" d="M11.71,14.386a3.586,3.586,0,1,0,3.568,3.586A3.574,3.574,0,0,0,11.71,14.386Z" transform="translate(7.359 5.672)" fill="#cd342e"/>
          <path id="Path_13" data-name="Path 13" d="M82.544,35C78.625,18.644,74.484,9.955,66.183,7.5a16.49,16.49,0,0,0-4.751-.739c-5.1,0-8.67,2.718-17.766,2.718S31,6.757,25.9,6.757a16.307,16.307,0,0,0-4.751.739C12.848,9.955,8.707,18.663,4.788,35,.869,51.366,1.59,63.179,6.212,65.379a5.393,5.393,0,0,0,2.311.518c4.012,0,8.338-4.4,12.516-9.613,4.751-5.934,5.934-6.1,20.391-6.1h4.492c14.438,0,15.64.148,20.391,6.1,4.16,5.213,8.5,9.613,12.516,9.613a5.453,5.453,0,0,0,2.311-.518C85.742,63.16,86.445,51.347,82.544,35Zm-61.21,2.718A7.321,7.321,0,1,1,28.581,30.4,7.3,7.3,0,0,1,21.334,37.723Zm31.964-3.6A3.716,3.716,0,1,1,57.013,30.4,3.716,3.716,0,0,1,53.3,34.118Zm8.116,8.116a3.707,3.707,0,1,1,3.716-3.7A3.712,3.712,0,0,1,61.413,42.233Zm0-16.231a3.716,3.716,0,1,1,3.716-3.716A3.716,3.716,0,0,1,61.413,26Zm8.116,8.116A3.716,3.716,0,1,1,73.245,30.4,3.716,3.716,0,0,1,69.529,34.118Z" transform="translate(-2.247 -6.757)" fill="#cd342e"/>
        </g>
        <path id="Icon_awesome-keyboard" data-name="Icon awesome-keyboard" d="M90.38,70.231H8.216A8.216,8.216,0,0,1,0,62.015v-49.3A8.216,8.216,0,0,1,8.216,4.5H90.38A8.216,8.216,0,0,1,98.6,12.716v49.3A8.216,8.216,0,0,1,90.38,70.231ZM21.91,24.356V17.509a2.054,2.054,0,0,0-2.054-2.054H13.009a2.054,2.054,0,0,0-2.054,2.054v6.847a2.054,2.054,0,0,0,2.054,2.054h6.847A2.054,2.054,0,0,0,21.91,24.356Zm16.433,0V17.509a2.054,2.054,0,0,0-2.054-2.054H29.442a2.054,2.054,0,0,0-2.054,2.054v6.847a2.054,2.054,0,0,0,2.054,2.054h6.847A2.054,2.054,0,0,0,38.343,24.356Zm16.433,0V17.509a2.054,2.054,0,0,0-2.054-2.054H45.875a2.054,2.054,0,0,0-2.054,2.054v6.847a2.054,2.054,0,0,0,2.054,2.054h6.847A2.054,2.054,0,0,0,54.776,24.356Zm16.433,0V17.509a2.054,2.054,0,0,0-2.054-2.054H62.308a2.054,2.054,0,0,0-2.054,2.054v6.847a2.054,2.054,0,0,0,2.054,2.054h6.847A2.054,2.054,0,0,0,71.209,24.356Zm16.433,0V17.509a2.054,2.054,0,0,0-2.054-2.054H78.74a2.054,2.054,0,0,0-2.054,2.054v6.847A2.054,2.054,0,0,0,78.74,26.41h6.847A2.054,2.054,0,0,0,87.641,24.356ZM30.127,40.789V33.942a2.054,2.054,0,0,0-2.054-2.054H21.226a2.054,2.054,0,0,0-2.054,2.054v6.847a2.054,2.054,0,0,0,2.054,2.054h6.847A2.054,2.054,0,0,0,30.127,40.789Zm16.433,0V33.942a2.054,2.054,0,0,0-2.054-2.054H37.658A2.054,2.054,0,0,0,35.6,33.942v6.847a2.054,2.054,0,0,0,2.054,2.054h6.847A2.054,2.054,0,0,0,46.559,40.789Zm16.433,0V33.942a2.054,2.054,0,0,0-2.054-2.054H54.091a2.054,2.054,0,0,0-2.054,2.054v6.847a2.054,2.054,0,0,0,2.054,2.054h6.847A2.054,2.054,0,0,0,62.992,40.789Zm16.433,0V33.942a2.054,2.054,0,0,0-2.054-2.054H70.524a2.054,2.054,0,0,0-2.054,2.054v6.847a2.054,2.054,0,0,0,2.054,2.054h6.847A2.054,2.054,0,0,0,79.425,40.789ZM21.91,57.222V50.375a2.054,2.054,0,0,0-2.054-2.054H13.009a2.054,2.054,0,0,0-2.054,2.054v6.847a2.054,2.054,0,0,0,2.054,2.054h6.847A2.054,2.054,0,0,0,21.91,57.222Zm49.3,0V50.375a2.054,2.054,0,0,0-2.054-2.054H29.442a2.054,2.054,0,0,0-2.054,2.054v6.847a2.054,2.054,0,0,0,2.054,2.054H69.155A2.054,2.054,0,0,0,71.209,57.222Zm16.433,0V50.375a2.054,2.054,0,0,0-2.054-2.054H78.74a2.054,2.054,0,0,0-2.054,2.054v6.847a2.054,2.054,0,0,0,2.054,2.054h6.847A2.054,2.054,0,0,0,87.641,57.222Z" transform="translate(2452.196 429.758)" fill="#cd342e"/>
        <path id="Icon_material-mouse" data-name="Icon material-mouse" d="M32.863,1.605V25.274H53.756A23.843,23.843,0,0,0,32.863,1.6ZM6,43.182a23.878,23.878,0,1,0,47.756,0V31.243H6ZM26.893,1.6A23.843,23.843,0,0,0,6,25.274H26.893V1.605Z" transform="translate(2569.77 435.283)" fill="#cd342e"/>
      </g>
      <rect id="Rectangle_20" data-name="Rectangle 20" width="50" height="1661" transform="translate(1986.4 254.409) rotate(45)" fill="#cd342e"/>
      <path id="Path_15" data-name="Path 15" d="M0,0H1950.146V23.288H0Z" transform="translate(602.049 1445.274) rotate(-45)" fill="#fff"/>
      <g id="Group_23" data-name="Group 23" transform="translate(-154.112 1656.99) rotate(-45)">
        <path id="Icon_material-computer-2" data-name="Icon material-computer" d="M78.877,61.214a7.877,7.877,0,0,0,7.848-7.888l.039-39.439A7.911,7.911,0,0,0,78.877,6h-63.1a7.911,7.911,0,0,0-7.888,7.888V53.326a7.911,7.911,0,0,0,7.888,7.888H0V69.1H94.653V61.214Zm-63.1-47.326h63.1V53.326h-63.1Z" transform="translate(2021 428.258)" fill="#cd342e"/>
        <g id="Icon_feather-monitor-2" data-name="Icon feather-monitor" transform="translate(2140.367 430.315)">
          <path id="Path_9-2" data-name="Path 9" d="M10.888,4.5h63.1a7.888,7.888,0,0,1,7.888,7.888V51.826a7.888,7.888,0,0,1-7.888,7.888h-63.1A7.888,7.888,0,0,1,3,51.826V12.388A7.888,7.888,0,0,1,10.888,4.5Z" transform="translate(-3 -4.5)" fill="none" stroke="#cd342e" stroke-linecap="round" stroke-linejoin="round" stroke-width="3"/>
          <path id="Path_10-2" data-name="Path 10" d="M12,31.5H43.551" transform="translate(11.663 39.49)" fill="none" stroke="#cd342e" stroke-linecap="round" stroke-linejoin="round" stroke-width="3"/>
          <path id="Path_11-2" data-name="Path 11" d="M18,25.5V41.275" transform="translate(21.439 29.714)" fill="none" stroke="#cd342e" stroke-linecap="round" stroke-linejoin="round" stroke-width="3"/>
        </g>
        <path id="Icon_awesome-headset-2" data-name="Icon awesome-headset" d="M28.593,30.976a4.766,4.766,0,0,0-4.766-4.766H21.445a9.53,9.53,0,0,0-9.531,9.531V42.89a9.53,9.53,0,0,0,9.531,9.531h2.383a4.766,4.766,0,0,0,4.766-4.765ZM54.8,52.421a9.53,9.53,0,0,0,9.531-9.531V35.741A9.53,9.53,0,0,0,54.8,26.21H52.421a4.766,4.766,0,0,0-4.765,4.766V47.655a4.766,4.766,0,0,0,4.765,4.765ZM38.124,0C16.855,0,.682,17.7,0,38.124v2.383A2.382,2.382,0,0,0,2.383,42.89H4.766a2.382,2.382,0,0,0,2.383-2.383V38.124a30.976,30.976,0,0,1,61.952,0h-.018c.012.362.018,24.679.018,24.679a6.3,6.3,0,0,1-6.3,6.3H47.655a7.148,7.148,0,0,0-7.148-7.148H35.741a7.148,7.148,0,0,0,0,14.3H62.8A13.445,13.445,0,0,0,76.248,62.8V38.124C75.566,17.7,59.393,0,38.124,0Z" transform="translate(2244.486 429)" fill="#cd342e"/>
        <g id="Icon_ionic-logo-game-controller-b-2" data-name="Icon ionic-logo-game-controller-b" transform="translate(2344.397 439.517)">
          <path id="Path_12-2" data-name="Path 12" d="M11.71,14.386a3.586,3.586,0,1,0,3.568,3.586A3.574,3.574,0,0,0,11.71,14.386Z" transform="translate(7.359 5.672)" fill="#cd342e"/>
          <path id="Path_13-2" data-name="Path 13" d="M82.544,35C78.625,18.644,74.484,9.955,66.183,7.5a16.49,16.49,0,0,0-4.751-.739c-5.1,0-8.67,2.718-17.766,2.718S31,6.757,25.9,6.757a16.307,16.307,0,0,0-4.751.739C12.848,9.955,8.707,18.663,4.788,35,.869,51.366,1.59,63.179,6.212,65.379a5.393,5.393,0,0,0,2.311.518c4.012,0,8.338-4.4,12.516-9.613,4.751-5.934,5.934-6.1,20.391-6.1h4.492c14.438,0,15.64.148,20.391,6.1,4.16,5.213,8.5,9.613,12.516,9.613a5.453,5.453,0,0,0,2.311-.518C85.742,63.16,86.445,51.347,82.544,35Zm-61.21,2.718A7.321,7.321,0,1,1,28.581,30.4,7.3,7.3,0,0,1,21.334,37.723Zm31.964-3.6A3.716,3.716,0,1,1,57.013,30.4,3.716,3.716,0,0,1,53.3,34.118Zm8.116,8.116a3.707,3.707,0,1,1,3.716-3.7A3.712,3.712,0,0,1,61.413,42.233Zm0-16.231a3.716,3.716,0,1,1,3.716-3.716A3.716,3.716,0,0,1,61.413,26Zm8.116,8.116A3.716,3.716,0,1,1,73.245,30.4,3.716,3.716,0,0,1,69.529,34.118Z" transform="translate(-2.247 -6.757)" fill="#cd342e"/>
        </g>
        <path id="Icon_awesome-keyboard-2" data-name="Icon awesome-keyboard" d="M90.38,70.231H8.216A8.216,8.216,0,0,1,0,62.015v-49.3A8.216,8.216,0,0,1,8.216,4.5H90.38A8.216,8.216,0,0,1,98.6,12.716v49.3A8.216,8.216,0,0,1,90.38,70.231ZM21.91,24.356V17.509a2.054,2.054,0,0,0-2.054-2.054H13.009a2.054,2.054,0,0,0-2.054,2.054v6.847a2.054,2.054,0,0,0,2.054,2.054h6.847A2.054,2.054,0,0,0,21.91,24.356Zm16.433,0V17.509a2.054,2.054,0,0,0-2.054-2.054H29.442a2.054,2.054,0,0,0-2.054,2.054v6.847a2.054,2.054,0,0,0,2.054,2.054h6.847A2.054,2.054,0,0,0,38.343,24.356Zm16.433,0V17.509a2.054,2.054,0,0,0-2.054-2.054H45.875a2.054,2.054,0,0,0-2.054,2.054v6.847a2.054,2.054,0,0,0,2.054,2.054h6.847A2.054,2.054,0,0,0,54.776,24.356Zm16.433,0V17.509a2.054,2.054,0,0,0-2.054-2.054H62.308a2.054,2.054,0,0,0-2.054,2.054v6.847a2.054,2.054,0,0,0,2.054,2.054h6.847A2.054,2.054,0,0,0,71.209,24.356Zm16.433,0V17.509a2.054,2.054,0,0,0-2.054-2.054H78.74a2.054,2.054,0,0,0-2.054,2.054v6.847A2.054,2.054,0,0,0,78.74,26.41h6.847A2.054,2.054,0,0,0,87.641,24.356ZM30.127,40.789V33.942a2.054,2.054,0,0,0-2.054-2.054H21.226a2.054,2.054,0,0,0-2.054,2.054v6.847a2.054,2.054,0,0,0,2.054,2.054h6.847A2.054,2.054,0,0,0,30.127,40.789Zm16.433,0V33.942a2.054,2.054,0,0,0-2.054-2.054H37.658A2.054,2.054,0,0,0,35.6,33.942v6.847a2.054,2.054,0,0,0,2.054,2.054h6.847A2.054,2.054,0,0,0,46.559,40.789Zm16.433,0V33.942a2.054,2.054,0,0,0-2.054-2.054H54.091a2.054,2.054,0,0,0-2.054,2.054v6.847a2.054,2.054,0,0,0,2.054,2.054h6.847A2.054,2.054,0,0,0,62.992,40.789Zm16.433,0V33.942a2.054,2.054,0,0,0-2.054-2.054H70.524a2.054,2.054,0,0,0-2.054,2.054v6.847a2.054,2.054,0,0,0,2.054,2.054h6.847A2.054,2.054,0,0,0,79.425,40.789ZM21.91,57.222V50.375a2.054,2.054,0,0,0-2.054-2.054H13.009a2.054,2.054,0,0,0-2.054,2.054v6.847a2.054,2.054,0,0,0,2.054,2.054h6.847A2.054,2.054,0,0,0,21.91,57.222Zm49.3,0V50.375a2.054,2.054,0,0,0-2.054-2.054H29.442a2.054,2.054,0,0,0-2.054,2.054v6.847a2.054,2.054,0,0,0,2.054,2.054H69.155A2.054,2.054,0,0,0,71.209,57.222Zm16.433,0V50.375a2.054,2.054,0,0,0-2.054-2.054H78.74a2.054,2.054,0,0,0-2.054,2.054v6.847a2.054,2.054,0,0,0,2.054,2.054h6.847A2.054,2.054,0,0,0,87.641,57.222Z" transform="translate(2452.196 429.758)" fill="#cd342e"/>
        <path id="Icon_material-mouse-2" data-name="Icon material-mouse" d="M32.863,1.605V25.274H53.756A23.843,23.843,0,0,0,32.863,1.6ZM6,43.182a23.878,23.878,0,1,0,47.756,0V31.243H6ZM26.893,1.6A23.843,23.843,0,0,0,6,25.274H26.893V1.605Z" transform="translate(2569.77 435.283)" fill="#cd342e"/>
      </g>
      <rect id="Rectangle_36" data-name="Rectangle 36" width="696" height="412" transform="translate(-521.903 1543.455) rotate(-45)" fill="#cd342e"/>
      <rect id="Rectangle_37" data-name="Rectangle 37" width="1078" height="28" transform="translate(-69.939 550.822) rotate(-45)" fill="#fff"/>
      <g id="Group_25" data-name="Group 25" transform="translate(-1047.112 2537.99) rotate(-45)">
        <path id="Icon_material-computer-3" data-name="Icon material-computer" d="M78.877,61.214a7.877,7.877,0,0,0,7.848-7.888l.039-39.439A7.911,7.911,0,0,0,78.877,6h-63.1a7.911,7.911,0,0,0-7.888,7.888V53.326a7.911,7.911,0,0,0,7.888,7.888H0V69.1H94.653V61.214Zm-63.1-47.326h63.1V53.326h-63.1Z" transform="translate(2021 428.258)" fill="#cd342e"/>
        <g id="Icon_feather-monitor-3" data-name="Icon feather-monitor" transform="translate(2140.367 430.315)">
          <path id="Path_9-3" data-name="Path 9" d="M10.888,4.5h63.1a7.888,7.888,0,0,1,7.888,7.888V51.826a7.888,7.888,0,0,1-7.888,7.888h-63.1A7.888,7.888,0,0,1,3,51.826V12.388A7.888,7.888,0,0,1,10.888,4.5Z" transform="translate(-3 -4.5)" fill="none" stroke="#cd342e" stroke-linecap="round" stroke-linejoin="round" stroke-width="3"/>
          <path id="Path_10-3" data-name="Path 10" d="M12,31.5H43.551" transform="translate(11.663 39.49)" fill="none" stroke="#cd342e" stroke-linecap="round" stroke-linejoin="round" stroke-width="3"/>
          <path id="Path_11-3" data-name="Path 11" d="M18,25.5V41.275" transform="translate(21.439 29.714)" fill="none" stroke="#cd342e" stroke-linecap="round" stroke-linejoin="round" stroke-width="3"/>
        </g>
        <path id="Icon_awesome-headset-3" data-name="Icon awesome-headset" d="M28.593,30.976a4.766,4.766,0,0,0-4.766-4.766H21.445a9.53,9.53,0,0,0-9.531,9.531V42.89a9.53,9.53,0,0,0,9.531,9.531h2.383a4.766,4.766,0,0,0,4.766-4.765ZM54.8,52.421a9.53,9.53,0,0,0,9.531-9.531V35.741A9.53,9.53,0,0,0,54.8,26.21H52.421a4.766,4.766,0,0,0-4.765,4.766V47.655a4.766,4.766,0,0,0,4.765,4.765ZM38.124,0C16.855,0,.682,17.7,0,38.124v2.383A2.382,2.382,0,0,0,2.383,42.89H4.766a2.382,2.382,0,0,0,2.383-2.383V38.124a30.976,30.976,0,0,1,61.952,0h-.018c.012.362.018,24.679.018,24.679a6.3,6.3,0,0,1-6.3,6.3H47.655a7.148,7.148,0,0,0-7.148-7.148H35.741a7.148,7.148,0,0,0,0,14.3H62.8A13.445,13.445,0,0,0,76.248,62.8V38.124C75.566,17.7,59.393,0,38.124,0Z" transform="translate(2244.486 429)" fill="#cd342e"/>
        <g id="Icon_ionic-logo-game-controller-b-3" data-name="Icon ionic-logo-game-controller-b" transform="translate(2344.397 439.517)">
          <path id="Path_12-3" data-name="Path 12" d="M11.71,14.386a3.586,3.586,0,1,0,3.568,3.586A3.574,3.574,0,0,0,11.71,14.386Z" transform="translate(7.359 5.672)" fill="#cd342e"/>
          <path id="Path_13-3" data-name="Path 13" d="M82.544,35C78.625,18.644,74.484,9.955,66.183,7.5a16.49,16.49,0,0,0-4.751-.739c-5.1,0-8.67,2.718-17.766,2.718S31,6.757,25.9,6.757a16.307,16.307,0,0,0-4.751.739C12.848,9.955,8.707,18.663,4.788,35,.869,51.366,1.59,63.179,6.212,65.379a5.393,5.393,0,0,0,2.311.518c4.012,0,8.338-4.4,12.516-9.613,4.751-5.934,5.934-6.1,20.391-6.1h4.492c14.438,0,15.64.148,20.391,6.1,4.16,5.213,8.5,9.613,12.516,9.613a5.453,5.453,0,0,0,2.311-.518C85.742,63.16,86.445,51.347,82.544,35Zm-61.21,2.718A7.321,7.321,0,1,1,28.581,30.4,7.3,7.3,0,0,1,21.334,37.723Zm31.964-3.6A3.716,3.716,0,1,1,57.013,30.4,3.716,3.716,0,0,1,53.3,34.118Zm8.116,8.116a3.707,3.707,0,1,1,3.716-3.7A3.712,3.712,0,0,1,61.413,42.233Zm0-16.231a3.716,3.716,0,1,1,3.716-3.716A3.716,3.716,0,0,1,61.413,26Zm8.116,8.116A3.716,3.716,0,1,1,73.245,30.4,3.716,3.716,0,0,1,69.529,34.118Z" transform="translate(-2.247 -6.757)" fill="#cd342e"/>
        </g>
        <path id="Icon_awesome-keyboard-3" data-name="Icon awesome-keyboard" d="M90.38,70.231H8.216A8.216,8.216,0,0,1,0,62.015v-49.3A8.216,8.216,0,0,1,8.216,4.5H90.38A8.216,8.216,0,0,1,98.6,12.716v49.3A8.216,8.216,0,0,1,90.38,70.231ZM21.91,24.356V17.509a2.054,2.054,0,0,0-2.054-2.054H13.009a2.054,2.054,0,0,0-2.054,2.054v6.847a2.054,2.054,0,0,0,2.054,2.054h6.847A2.054,2.054,0,0,0,21.91,24.356Zm16.433,0V17.509a2.054,2.054,0,0,0-2.054-2.054H29.442a2.054,2.054,0,0,0-2.054,2.054v6.847a2.054,2.054,0,0,0,2.054,2.054h6.847A2.054,2.054,0,0,0,38.343,24.356Zm16.433,0V17.509a2.054,2.054,0,0,0-2.054-2.054H45.875a2.054,2.054,0,0,0-2.054,2.054v6.847a2.054,2.054,0,0,0,2.054,2.054h6.847A2.054,2.054,0,0,0,54.776,24.356Zm16.433,0V17.509a2.054,2.054,0,0,0-2.054-2.054H62.308a2.054,2.054,0,0,0-2.054,2.054v6.847a2.054,2.054,0,0,0,2.054,2.054h6.847A2.054,2.054,0,0,0,71.209,24.356Zm16.433,0V17.509a2.054,2.054,0,0,0-2.054-2.054H78.74a2.054,2.054,0,0,0-2.054,2.054v6.847A2.054,2.054,0,0,0,78.74,26.41h6.847A2.054,2.054,0,0,0,87.641,24.356ZM30.127,40.789V33.942a2.054,2.054,0,0,0-2.054-2.054H21.226a2.054,2.054,0,0,0-2.054,2.054v6.847a2.054,2.054,0,0,0,2.054,2.054h6.847A2.054,2.054,0,0,0,30.127,40.789Zm16.433,0V33.942a2.054,2.054,0,0,0-2.054-2.054H37.658A2.054,2.054,0,0,0,35.6,33.942v6.847a2.054,2.054,0,0,0,2.054,2.054h6.847A2.054,2.054,0,0,0,46.559,40.789Zm16.433,0V33.942a2.054,2.054,0,0,0-2.054-2.054H54.091a2.054,2.054,0,0,0-2.054,2.054v6.847a2.054,2.054,0,0,0,2.054,2.054h6.847A2.054,2.054,0,0,0,62.992,40.789Zm16.433,0V33.942a2.054,2.054,0,0,0-2.054-2.054H70.524a2.054,2.054,0,0,0-2.054,2.054v6.847a2.054,2.054,0,0,0,2.054,2.054h6.847A2.054,2.054,0,0,0,79.425,40.789ZM21.91,57.222V50.375a2.054,2.054,0,0,0-2.054-2.054H13.009a2.054,2.054,0,0,0-2.054,2.054v6.847a2.054,2.054,0,0,0,2.054,2.054h6.847A2.054,2.054,0,0,0,21.91,57.222Zm49.3,0V50.375a2.054,2.054,0,0,0-2.054-2.054H29.442a2.054,2.054,0,0,0-2.054,2.054v6.847a2.054,2.054,0,0,0,2.054,2.054H69.155A2.054,2.054,0,0,0,71.209,57.222Zm16.433,0V50.375a2.054,2.054,0,0,0-2.054-2.054H78.74a2.054,2.054,0,0,0-2.054,2.054v6.847a2.054,2.054,0,0,0,2.054,2.054h6.847A2.054,2.054,0,0,0,87.641,57.222Z" transform="translate(2452.196 429.758)" fill="#cd342e"/>
        <path id="Icon_material-mouse-3" data-name="Icon material-mouse" d="M32.863,1.605V25.274H53.756A23.843,23.843,0,0,0,32.863,1.6ZM6,43.182a23.878,23.878,0,1,0,47.756,0V31.243H6ZM26.893,1.6A23.843,23.843,0,0,0,6,25.274H26.893V1.605Z" transform="translate(2569.77 435.283)" fill="#cd342e"/>
      </g>
    </g>
  </g>
</svg>
